<?xml version="1.0" standalone="no"?>
<!DOCTYPE svg PUBLIC "-//W3C//DTD SVG 20010904//EN"
 "http://www.w3.org/TR/2001/REC-SVG-20010904/DTD/svg10.dtd">
<svg version="1.0" xmlns="http://www.w3.org/2000/svg"
 width="1326.000000pt" height="1326.000000pt" viewBox="0 0 1326.000000 1326.000000"
 preserveAspectRatio="xMidYMid meet">
<metadata>
Created by potrace 1.14, written by Peter Selinger 2001-2017
</metadata>
<g transform="translate(0.000000,1326.000000) scale(0.100000,-0.100000)"
fill="#000000" stroke="none">
<path d="M6480 10860 c0 -3 -39 -5 -88 -6 -151 -1 -486 -15 -494 -20 -4 -3 -8
0 -8 6 0 7 -5 8 -12 3 -7 -4 -31 -8 -53 -9 -67 -2 -394 -15 -495 -19 -149 -6
-355 -15 -470 -20 -58 -3 -166 -7 -240 -10 -691 -27 -837 -33 -980 -40 -269
-13 -368 -17 -395 -19 -20 -1 -34 -11 -46 -31 -10 -16 -16 -32 -13 -36 2 -4 0
-9 -5 -11 -9 -3 -56 -91 -251 -473 -76 -148 -159 -310 -185 -360 -62 -119
-155 -300 -299 -580 -65 -126 -123 -233 -128 -236 -5 -3 -10 -9 -10 -12 0 -19
-12 -47 -19 -47 -5 0 -8 -3 -7 -7 3 -15 -22 -63 -32 -63 -6 0 -9 -4 -5 -9 3
-5 -2 -16 -10 -25 -9 -8 -16 -19 -15 -23 0 -21 -13 -43 -22 -37 -7 4 -8 2 -4
-4 9 -14 -21 -72 -37 -72 -9 0 -9 -2 1 -9 10 -6 10 -10 -3 -21 -9 -7 -14 -19
-11 -27 3 -7 1 -13 -4 -13 -6 0 -10 -7 -10 -16 0 -9 -5 -12 -13 -8 -9 6 -9 4
1 -8 10 -13 10 -18 1 -24 -8 -5 -9 -3 -4 7 7 12 6 12 -7 1 -19 -15 -18 -40 3
-53 9 -5 10 -9 2 -9 -6 0 -10 -9 -8 -19 3 -14 -1 -18 -12 -14 -8 3 -11 9 -6
12 11 8 15 31 5 31 -8 0 -23 -25 -41 -65 -2 -5 3 -4 13 4 9 8 19 12 21 9 3 -3
-6 -11 -20 -18 -14 -7 -25 -17 -25 -22 0 -5 6 -6 12 -2 7 4 5 -2 -5 -13 -12
-13 -26 -19 -40 -16 -18 4 -19 3 -7 -6 13 -10 11 -14 -10 -32 -14 -11 -19 -18
-12 -14 6 3 12 1 12 -4 0 -6 -5 -11 -11 -11 -5 0 -8 -4 -4 -9 3 -5 -2 -17 -11
-25 -8 -9 -12 -16 -7 -16 4 0 1 -6 -7 -13 -8 -7 -15 -19 -15 -27 0 -8 -6 -14
-13 -12 -7 1 -12 -3 -11 -10 3 -25 -1 -35 -16 -35 -9 0 -11 4 -6 11 6 8 -3 11
-29 11 -21 0 -36 -3 -33 -7 2 -5 1 -8 -2 -8 -8 0 -49 21 -55 29 -3 3 -33 30
-67 60 -35 29 -60 57 -57 62 3 5 10 6 16 3 7 -4 8 -2 4 5 -4 6 -11 9 -16 6 -5
-3 -12 0 -16 6 -4 8 -3 9 4 5 8 -5 12 0 12 13 0 12 5 21 11 21 5 0 8 -4 4 -9
-3 -5 0 -13 6 -17 7 -4 9 -3 5 4 -3 6 -2 13 4 17 5 3 10 1 10 -4 0 -6 5 -11
11 -11 8 0 8 5 -1 15 -10 12 -10 18 0 30 13 15 2 21 -16 8 -5 -5 -1 -1 8 9 18
16 25 33 10 24 -4 -2 -9 4 -9 15 -1 10 2 19 8 19 5 0 9 -5 9 -12 0 -6 3 -8 6
-5 4 4 1 13 -6 22 -7 8 -9 15 -4 15 4 0 3 5 -4 12 -15 15 -15 28 -1 28 5 0 8
-4 5 -8 -2 -4 4 -8 15 -8 18 0 18 2 5 12 -9 6 -16 17 -16 23 0 7 -5 9 -12 5
-7 -5 -8 -3 -3 6 6 9 4 12 -7 8 -8 -4 -15 -1 -15 7 0 7 6 11 14 8 9 -4 11 0 6
13 -4 12 -3 15 6 10 10 -6 10 -4 0 12 -13 20 -29 21 -29 1 0 -6 5 -7 12 -3 7
4 8 3 4 -4 -8 -14 -33 -5 -40 14 -3 9 -1 12 4 9 6 -3 10 -1 10 6 0 7 -8 9 -21
6 -21 -6 -21 -5 -3 11 11 10 36 28 57 41 20 12 37 24 37 25 0 1 -193 4 -429 5
l-429 2 2 -33 c1 -18 5 -39 10 -47 6 -10 5 -12 -2 -7 -9 5 -12 -39 -12 -173 0
-134 3 -181 13 -184 10 -4 10 -6 0 -6 -7 -1 -13 -9 -13 -18 0 -15 2 -16 10 -3
5 8 10 10 10 4 0 -5 -5 -15 -11 -21 -7 -7 -9 -19 -6 -27 6 -14 41 -16 287 -16
170 0 279 -4 275 -9 -3 -5 4 -12 15 -16 18 -6 25 -23 21 -48 -1 -5 3 -6 9 -2
5 3 10 -1 10 -10 0 -9 5 -13 11 -10 6 4 10 1 8 -6 -4 -31 1 -41 19 -34 12 4
14 3 6 -5 -8 -8 -7 -20 5 -45 9 -19 20 -34 24 -35 5 0 5 5 1 12 -4 7 -3 8 5 4
6 -4 10 -20 9 -34 -1 -15 2 -34 7 -41 6 -10 4 -12 -5 -6 -10 6 -12 2 -8 -18 4
-19 1 -24 -10 -19 -10 3 -13 1 -8 -6 3 -6 2 -13 -4 -17 -6 -4 -8 -11 -5 -16 4
-5 1 -9 -4 -9 -14 0 -14 13 1 28 9 9 9 12 0 12 -7 0 -12 -5 -12 -11 0 -5 -6
-7 -12 -3 -7 4 -10 4 -6 -1 4 -4 0 -14 -10 -22 -16 -14 -16 -14 2 -8 16 5 15
1 -6 -18 -14 -13 -29 -41 -33 -63 -10 -46 -9 -42 -24 -79 -13 -29 -111 -310
-116 -330 -1 -5 -8 -23 -15 -40 -7 -16 -14 -35 -16 -42 -6 -32 -28 -90 -38
-102 -8 -11 -8 -13 0 -8 8 4 11 -2 10 -17 0 -15 -5 -21 -11 -16 -7 5 -9 -9 -7
-41 2 -28 9 -49 15 -49 8 0 8 -3 -1 -8 -9 -6 -12 -62 -12 -223 0 -223 6 -409
14 -445 2 -12 6 -45 7 -74 3 -51 2 -53 -23 -54 -16 -1 -24 3 -21 9 4 5 -4 1
-17 -10 -13 -11 -20 -14 -15 -6 6 11 4 13 -10 7 -11 -4 -22 -2 -27 6 -5 9 -8
8 -8 -6 0 -14 -3 -16 -13 -7 -8 6 -17 8 -21 4 -4 -4 -80 -9 -169 -10 -89 -2
-166 -5 -172 -7 -5 -2 -19 -18 -29 -36 -10 -18 -15 -30 -10 -27 6 3 10 -2 10
-12 0 -10 -6 -18 -13 -18 -7 0 -9 5 -6 11 4 6 -1 5 -10 -3 -10 -8 -15 -16 -12
-19 3 -3 0 -11 -5 -18 -6 -6 -10 -16 -8 -20 1 -5 -3 -18 -9 -29 -6 -11 -16
-44 -24 -72 -7 -29 -15 -53 -18 -53 -3 0 -7 -11 -8 -25 -1 -14 -3 -36 -4 -50
-1 -14 -7 -25 -13 -25 -6 0 -4 -5 4 -10 12 -8 12 -10 1 -10 -10 0 -11 -3 -2
-14 9 -11 9 -15 0 -18 -6 -2 -13 -22 -15 -43 -2 -22 -5 -56 -8 -75 -2 -20 1
-38 7 -42 9 -6 9 -8 0 -8 -17 0 -17 -72 0 -89 10 -10 9 -11 -4 -6 -13 5 -16
-2 -17 -37 0 -46 -11 -184 -17 -230 -2 -16 1 -31 6 -34 6 -3 6 -10 1 -17 -5
-7 -9 -24 -8 -39 1 -16 -2 -28 -7 -28 -4 0 -5 -5 -2 -10 4 -6 10 -8 15 -5 5 3
3 -7 -5 -22 -8 -15 -11 -31 -6 -36 12 -12 1 -48 -13 -40 -8 5 -8 3 0 -8 11
-15 12 -138 1 -156 -4 -6 -4 -14 0 -16 5 -3 6 -81 3 -174 -7 -226 -3 -325 13
-318 7 4 3 0 -7 -9 -19 -15 -18 -16 5 -25 17 -7 19 -10 7 -10 -24 -1 -23 -28
0 -35 14 -5 19 -17 19 -51 1 -25 -3 -47 -8 -50 -4 -3 -6 -13 -3 -23 4 -10 2
-13 -3 -7 -15 18 -35 17 -25 -1 5 -9 7 -26 4 -37 -3 -13 -1 -18 5 -14 6 4 13
0 16 -8 4 -9 1 -12 -9 -8 -8 3 -14 -1 -14 -10 0 -8 6 -18 13 -20 10 -4 10 -6
0 -6 -16 -1 -17 -35 -3 -62 8 -14 7 -19 -2 -19 -10 0 -10 -2 1 -9 10 -7 11
-13 1 -31 -6 -12 -9 -24 -6 -28 3 -3 6 0 6 7 0 8 6 11 16 7 14 -5 15 -4 4 9
-7 8 -8 15 -2 15 18 0 21 -29 4 -40 -15 -10 -15 -11 0 -6 9 2 19 -2 22 -10 3
-9 10 -12 16 -9 5 3 10 1 10 -5 0 -7 -7 -10 -15 -7 -8 4 -17 1 -21 -5 -5 -7
-2 -8 6 -3 9 6 10 1 5 -16 -4 -17 -4 -20 4 -10 17 25 37 21 37 -8 -1 -14 -4
-31 -9 -38 -4 -6 -2 -15 4 -19 8 -5 9 -3 4 7 -8 12 -6 12 8 0 18 -15 23 -26 7
-16 -5 3 -10 -3 -10 -14 0 -12 4 -21 8 -21 5 0 9 -13 9 -30 0 -26 -2 -28 -14
-12 -12 16 -13 16 -7 -2 4 -10 1 -22 -7 -28 -10 -7 -9 -8 7 -4 14 4 21 2 21
-8 0 -9 -4 -13 -8 -11 -4 3 -9 -2 -12 -10 -4 -8 -1 -12 6 -9 14 5 17 -73 4
-94 -5 -7 -4 -12 2 -12 6 0 11 -10 10 -22 0 -22 -1 -22 -9 -3 -8 19 -9 19 -9
-2 -1 -13 4 -23 9 -23 6 0 10 -8 10 -17 0 -15 -2 -16 -10 -3 -8 13 -10 12 -10
-2 0 -10 5 -18 10 -18 6 0 10 -5 10 -11 0 -5 -4 -8 -9 -4 -5 3 -13 0 -17 -6
-4 -7 -3 -9 4 -5 15 9 22 -6 27 -65 3 -33 0 -58 -8 -68 -8 -10 -8 -13 0 -8 6
4 14 3 18 -3 3 -5 -2 -10 -12 -11 -14 0 -15 -2 -3 -7 8 -4 16 -18 18 -31 3
-17 0 -21 -10 -15 -11 6 -11 5 0 -9 8 -9 13 -26 12 -39 -1 -13 -1 -25 0 -28 1
-3 3 -24 4 -47 1 -23 4 -45 8 -49 4 -3 3 -15 -3 -25 -5 -11 -6 -19 -1 -19 5 0
9 -24 10 -52 0 -29 3 -62 5 -73 3 -11 13 -66 23 -122 11 -67 21 -100 28 -96 6
4 5 -1 -2 -10 -12 -14 -11 -16 7 -12 12 2 21 0 21 -6 0 -5 5 -9 11 -9 5 0 7 5
3 11 -4 8 -1 8 12 2 11 -6 61 -9 111 -9 56 1 93 -3 93 -9 0 -6 3 -6 8 0 9 14
38 12 35 -1 -1 -6 4 -11 12 -11 8 0 11 7 7 16 -5 14 -3 14 10 3 10 -8 19 -9
22 -3 3 5 15 7 26 4 11 -3 17 -9 14 -14 -10 -17 9 -9 22 9 13 16 13 16 14 -3
0 -12 3 -16 8 -9 9 13 52 25 52 14 0 -5 -6 -11 -12 -13 -10 -4 -10 -6 -1 -6 7
-1 18 5 25 12 13 15 54 11 77 -7 11 -8 13 -8 7 2 -6 10 8 12 61 11 37 -2 73
-5 78 -8 21 -11 33 -9 28 6 -5 13 -3 13 15 4 12 -7 22 -9 22 -5 0 3 7 1 15 -6
13 -11 14 -10 9 5 -5 12 -4 16 4 11 6 -4 55 -6 109 -6 54 1 107 1 118 1 156
-3 265 2 265 13 0 6 5 4 11 -4 7 -11 9 -2 6 35 -5 52 10 104 41 139 9 11 12
16 6 13 -17 -10 -39 19 -23 29 8 5 10 3 4 -7 -5 -8 -4 -11 0 -6 11 10 14 67 3
67 -4 0 -8 5 -8 11 0 5 4 8 8 5 5 -3 9 1 9 9 0 8 -4 12 -9 9 -4 -3 -8 0 -8 5
0 6 5 11 11 11 5 0 7 5 4 10 -4 6 -12 7 -18 3 -7 -4 -6 0 2 10 7 9 10 17 6 17
-4 0 -2 7 5 15 12 14 7 19 -13 16 -5 -1 -5 3 -2 9 4 6 12 9 19 7 6 -3 12 4 12
14 0 15 -3 16 -16 6 -13 -11 -13 -10 -1 5 11 15 11 21 0 35 -10 11 -10 14 -2
9 17 -9 17 6 0 23 -10 11 -9 12 3 5 20 -12 41 -14 35 -4 -3 5 1 11 7 14 7 3 3
3 -9 1 -25 -7 -40 12 -24 28 9 9 11 8 6 -5 -4 -11 -2 -18 4 -18 11 0 15 13 12
38 -1 6 3 12 9 12 6 0 9 4 5 9 -3 5 -1 12 4 16 5 3 8 14 6 24 -2 10 3 18 11
18 10 0 11 -4 4 -12 -7 -9 -7 -14 2 -18 9 -3 13 5 13 24 1 15 -3 25 -7 23 -4
-3 -8 -2 -9 3 0 4 -2 16 -4 26 -2 9 1 15 6 11 5 -3 6 -10 3 -16 -4 -6 -3 -8 3
-5 11 7 11 36 -1 55 -4 7 -2 12 6 12 9 0 9 3 -2 10 -13 9 -13 11 0 20 10 6 11
10 3 10 -7 0 -13 5 -13 11 0 5 5 7 10 4 6 -3 10 -1 10 4 0 6 -4 11 -10 11 -5
0 -10 5 -10 11 0 5 4 8 8 5 9 -6 8 36 -1 51 -4 7 -3 14 2 17 5 3 7 22 5 41 -1
19 1 37 5 40 5 2 6 17 3 31 -3 19 -2 25 7 20 7 -5 20 -1 30 8 14 13 51 16 209
18 106 2 192 5 192 8 0 3 9 6 20 7 13 1 18 -3 14 -10 -3 -7 1 -4 9 5 16 20 32
25 21 6 -4 -7 -3 -8 4 -4 6 4 8 14 5 24 -6 15 -5 15 10 3 15 -12 17 -12 11 4
-6 13 -4 16 6 10 10 -6 10 -4 2 11 -7 13 -6 24 7 43 9 14 11 22 4 18 -10 -6
-13 3 -14 35 -1 24 -3 63 -5 88 -3 25 -7 92 -9 150 -3 58 -5 105 -6 105 0 0
-2 55 -5 123 -3 81 -1 121 6 117 9 -6 14 10 11 45 0 11 1 11 5 2 5 -10 9 -10
20 -1 8 7 17 9 21 6 3 -4 13 -1 22 5 9 7 6 1 -7 -13 -17 -20 -19 -26 -7 -26 8
0 13 2 11 5 -2 2 4 12 13 21 15 15 34 18 97 17 43 -1 85 -5 93 -10 10 -6 12
-6 7 2 -5 8 0 12 13 12 12 0 21 -6 21 -12 0 -8 3 -9 8 -3 5 7 1233 10 3649 10
3232 0 3642 -2 3640 -15 -2 -8 -6 -21 -11 -28 -4 -7 -5 -16 -2 -19 3 -4 6 -1
6 5 0 15 26 16 35 2 3 -5 0 -7 -9 -4 -12 5 -14 0 -7 -23 4 -15 7 -39 7 -53 -1
-14 4 -28 9 -32 6 -5 5 -8 -2 -8 -7 0 -10 -6 -8 -13 3 -6 7 -52 10 -102 8
-121 7 -116 21 -111 8 3 16 1 19 -4 3 -5 13 -6 22 -3 15 6 16 5 3 -9 -8 -9
-17 -13 -20 -9 -7 8 -40 13 -40 6 0 -12 45 -22 58 -13 15 13 16 3 2 -22 -7
-13 -6 -21 2 -26 7 -4 10 -4 6 1 -4 4 0 14 10 22 10 9 11 11 2 7 -13 -7 -13
-5 -1 9 7 9 15 17 16 17 3 0 -2 -69 -10 -125 -13 -91 -14 -154 -3 -161 6 -4 8
-3 4 4 -3 6 -2 13 3 16 6 4 8 -7 6 -26 -3 -22 -2 -28 4 -19 7 12 13 12 24 3 7
-7 18 -8 22 -4 5 4 5 1 1 -6 -6 -10 -11 -10 -22 -1 -9 7 -14 8 -14 1 0 -15 22
-21 43 -10 16 8 22 0 18 -25 -1 -5 3 -6 9 -2 6 3 8 10 6 14 -3 4 9 7 27 7 18
-1 35 -7 39 -16 6 -13 7 -13 7 0 1 18 42 22 53 6 5 -7 8 -6 8 2 0 7 5 10 10 7
6 -4 7 -11 4 -17 -4 -6 -2 -8 4 -4 5 3 13 0 16 -6 3 -7 3 -3 0 9 -4 18 -1 20
17 16 15 -4 20 -3 15 5 -11 18 0 14 15 -5 12 -14 12 -16 0 -8 -10 6 -12 4 -6
-5 6 -10 11 -9 22 5 13 18 13 18 14 -1 0 -15 2 -16 7 -4 10 23 192 23 193 1 0
-11 3 -10 8 4 l8 20 5 -20 c4 -12 6 -14 7 -5 2 24 120 19 134 -6 5 -9 12 -85
13 -168 2 -83 6 -164 9 -181 3 -16 8 -75 11 -130 3 -55 7 -118 9 -140 2 -22 6
-74 9 -115 3 -41 10 -76 16 -78 5 -2 10 -11 10 -20 0 -12 -3 -13 -12 -4 -7 7
-17 12 -23 12 -5 0 -2 -5 8 -11 9 -6 15 -14 12 -20 -4 -5 -1 -9 4 -9 6 0 11 6
11 13 1 6 14 -4 30 -23 17 -19 30 -30 30 -24 0 6 -11 21 -25 34 -14 13 -25 28
-25 33 0 6 9 -1 21 -14 12 -13 26 -23 31 -21 5 1 7 -2 3 -8 -3 -5 -1 -10 5
-10 6 0 9 -4 5 -9 -3 -5 -1 -12 3 -15 5 -3 5 -33 0 -67 -6 -45 -5 -66 3 -73 9
-8 10 -7 4 4 -8 13 -6 13 8 2 9 -8 21 -11 27 -7 5 3 10 1 10 -5 0 -7 7 -7 23
1 20 11 21 11 8 -4 -7 -10 -10 -17 -6 -17 4 0 2 -7 -5 -15 -9 -10 -9 -15 -1
-15 10 0 15 14 12 34 -1 5 5 6 12 3 8 -3 20 0 27 6 10 9 11 9 6 0 -8 -15 3
-45 15 -37 5 3 9 10 9 15 0 6 -5 7 -12 3 -6 -4 -8 -3 -5 4 7 11 20 10 50 -3
15 -6 15 -10 5 -24 -11 -14 -11 -14 3 -4 11 9 19 9 26 2 8 -8 13 -7 18 2 5 7
4 10 -2 6 -6 -4 -13 0 -16 8 -4 9 -1 12 10 8 8 -3 19 0 25 8 7 10 8 8 3 -8 -5
-19 -3 -22 11 -16 13 5 15 3 9 -7 -5 -9 -4 -11 4 -6 9 6 9 11 -1 24 -11 13
-11 14 2 7 26 -16 42 -15 35 3 -5 13 -3 14 6 5 13 -13 3 -36 -13 -27 -6 4 -8
3 -5 -3 7 -11 30 -10 65 1 20 7 21 10 10 24 -12 15 -11 16 5 3 13 -11 15 -17
6 -28 -7 -7 -9 -16 -5 -20 3 -3 6 -1 6 6 0 7 7 11 15 8 8 -4 17 -1 21 5 5 7 2
8 -6 3 -8 -5 -11 -4 -6 3 9 15 38 3 29 -12 -3 -6 -3 -8 2 -4 4 4 15 2 23 -5
12 -9 14 -9 9 0 -6 9 8 12 50 12 32 0 65 1 73 1 8 1 33 -1 55 -3 27 -2 44 2
53 12 8 9 11 10 7 4 -3 -7 -1 -13 5 -13 6 0 8 -5 4 -12 -6 -10 -4 -10 7 -2 18
14 49 14 49 0 0 -6 5 -3 11 6 5 10 15 18 22 18 8 0 6 -4 -3 -11 -11 -8 -8 -9
15 -4 16 4 34 12 38 18 6 8 7 6 3 -5 -3 -10 -1 -20 4 -23 6 -4 10 1 10 10 0
13 4 14 20 5 14 -7 20 -7 20 0 0 5 5 10 11 10 5 0 7 -4 4 -10 -4 -7 2 -7 19 0
15 5 28 6 31 0 3 -5 13 -6 22 -3 12 5 14 3 8 -8 -8 -12 -6 -12 8 0 9 7 14 17
11 22 -8 14 -16 11 -8 -3 4 -7 3 -9 -1 -5 -14 13 -14 34 1 34 7 0 11 -4 8 -9
-3 -4 -1 -8 5 -8 5 0 12 6 15 13 3 6 3 2 0 -10 -3 -15 -1 -21 10 -19 9 1 19 5
22 9 4 4 13 2 19 -3 9 -8 14 -6 19 5 3 9 10 13 16 10 5 -3 7 0 4 8 -4 11 5 16
35 19 23 2 41 -1 41 -5 0 -5 6 -5 13 0 6 6 29 9 50 8 20 -1 37 1 38 4 4 35 12
54 29 71 16 16 18 25 11 39 -7 12 -6 22 2 31 7 7 7 10 1 7 -6 -3 -11 1 -11 9
0 8 6 13 13 10 8 -3 16 0 20 6 4 7 3 8 -5 4 -16 -10 -26 23 -11 37 10 9 11 9
5 -2 -6 -10 -4 -12 4 -6 9 5 10 10 2 18 -14 14 -14 37 0 37 5 0 7 -4 4 -10 -3
-5 -1 -10 4 -10 14 0 14 13 -1 28 -8 8 -8 15 3 28 9 12 10 15 2 10 -16 -9 -17
6 -1 22 9 9 9 12 0 12 -7 0 -12 5 -12 11 0 5 6 7 13 3 8 -5 8 -2 -2 9 -8 10
-9 17 -3 17 6 0 9 12 8 28 -2 15 2 30 8 34 8 6 7 8 -1 8 -7 0 -13 7 -13 15 0
8 6 15 13 15 8 0 7 4 -3 10 -9 6 -11 10 -3 10 7 0 10 7 6 17 -5 12 -3 14 8 8
11 -7 12 -6 2 6 -6 8 -10 36 -8 64 2 28 4 63 4 78 1 18 5 26 12 21 7 -4 7 1
-1 15 -9 18 -8 27 5 47 11 18 12 24 3 24 -9 0 -8 3 2 10 8 5 10 10 4 10 -12 0
-13 68 -1 87 5 8 3 13 -5 13 -9 0 -9 3 2 10 10 6 11 10 3 10 -7 0 -13 5 -13
11 0 5 5 7 10 4 6 -3 10 -1 10 4 0 6 -4 11 -9 11 -11 0 -8 53 4 62 6 5 5 8 -3
8 -10 0 -10 5 -2 20 6 11 7 20 3 20 -4 0 -1 5 7 10 12 8 12 10 -5 10 -20 1
-20 1 -1 15 11 8 15 15 9 15 -17 0 -11 103 6 116 11 9 12 12 1 19 -9 5 -11 4
-6 -3 4 -7 3 -12 -3 -12 -5 0 -9 9 -8 20 1 11 7 18 13 16 7 -3 10 3 7 15 -3
10 -10 19 -15 19 -5 0 -6 5 -3 11 4 6 14 8 24 5 10 -4 8 1 -6 13 l-23 19 35
-3 c20 -2 33 0 29 6 -3 5 -9 7 -14 4 -11 -7 -40 5 -40 17 0 5 5 6 10 3 6 -3
10 1 10 10 0 10 -5 13 -12 9 -6 -4 -8 -3 -4 4 3 6 19 9 34 6 19 -3 23 -2 12 5
-8 5 -18 7 -22 5 -4 -3 -8 0 -8 6 0 6 -5 8 -12 4 -6 -4 -8 -3 -5 4 8 11 25 11
45 -1 6 -5 12 -4 12 0 0 5 -9 14 -21 21 -12 8 -18 9 -15 3 5 -7 1 -8 -9 -5 -9
4 -15 7 -13 8 2 1 12 8 22 16 12 9 17 10 12 3 -5 -9 -2 -11 9 -6 13 5 14 7 3
14 -11 7 -10 9 1 9 8 0 12 3 9 6 -4 3 -16 1 -27 -6 -12 -6 -21 -7 -21 -2 0 5
11 15 25 22 32 17 31 21 -7 43 -25 15 -29 20 -17 27 9 7 18 4 27 -7 6 -9 12
-12 12 -5 0 6 -10 21 -22 32 -20 18 -20 20 -4 14 16 -6 18 -4 13 9 -3 9 -2 17
2 17 5 0 11 -6 14 -12 3 -7 4 -3 4 9 -1 12 -4 20 -8 17 -4 -2 -11 1 -15 7 -4
7 -3 9 4 5 6 -3 13 -2 17 4 3 5 1 10 -5 10 -6 0 -8 5 -4 12 11 17 12 60 3 85
-5 12 -4 25 0 28 5 2 9 23 9 45 1 22 -3 38 -7 36 -4 -3 -8 1 -8 7 0 7 11 13
23 13 12 0 20 -4 17 -10 -4 -5 -7 -28 -8 -50 -1 -23 -5 -51 -8 -63 -3 -13 -2
-25 3 -28 5 -3 7 3 5 15 -2 11 0 22 4 24 10 7 8 -35 -2 -52 -5 -6 -6 -16 -2
-21 3 -5 1 -12 -5 -16 -14 -8 -3 -25 16 -25 12 0 15 18 15 98 0 242 0 252 12
245 8 -5 8 -2 0 8 -10 12 -10 18 0 29 6 7 7 10 1 7 -7 -4 -10 19 -11 68 0 41
4 72 8 69 5 -3 9 0 9 5 0 6 -4 11 -8 11 -17 0 -12 49 6 53 16 4 16 5 0 6 -20
1 -25 21 -5 21 8 0 7 3 -3 10 -8 5 -11 12 -7 16 4 4 -1 16 -10 27 -10 11 -13
17 -7 14 8 -4 13 5 16 24 3 19 0 33 -8 36 -7 2 -10 11 -7 19 3 8 -5 18 -21 25
-19 9 -26 20 -26 41 0 15 5 28 10 28 6 0 8 -11 4 -25 -5 -21 -3 -24 12 -19 14
4 15 3 6 -4 -11 -7 -11 -10 2 -15 18 -7 31 8 16 18 -8 5 -7 12 2 23 10 14 10
15 -2 5 -19 -17 -35 -16 -21 1 15 18 -16 31 -35 15 -18 -15 -18 -4 0 14 13 12
12 16 -9 27 -23 12 -36 37 -39 75 0 11 -8 23 -16 27 -10 5 -7 7 10 8 22 1 23
2 6 9 -24 9 -31 42 -8 34 13 -4 12 -2 -3 10 -15 12 -17 18 -7 29 6 8 9 18 6
21 -4 4 -7 30 -8 59 -1 29 -5 58 -9 65 -4 6 -3 14 2 17 5 3 6 21 2 38 -4 18
-6 48 -6 66 1 17 -1 32 -4 32 -3 0 -6 21 -7 48 0 26 -4 88 -8 137 -5 50 -8 97
-8 105 0 8 -7 44 -15 80 -8 36 -16 74 -18 85 -2 11 -6 34 -10 50 -4 17 -7 38
-8 48 -1 9 -7 17 -15 17 -7 0 -11 4 -7 10 3 5 -55 10 -150 12 -99 2 -155 -1
-155 -7 0 -5 -5 -3 -10 5 -9 13 -10 13 -10 0 0 -13 -1 -13 -10 0 -5 8 -10 10
-10 3 0 -13 -37 -6 -59 11 -11 8 -13 8 -7 -1 10 -17 -16 -17 -33 0 -8 7 -11 7
-8 1 4 -7 -3 -14 -18 -16 -21 -4 -23 -3 -14 9 7 7 9 16 6 20 -4 3 1 11 10 18
13 9 13 14 3 20 -9 6 -11 4 -5 -6 5 -8 4 -11 0 -6 -12 10 -14 47 -3 47 5 0 6
11 2 25 -4 17 -2 25 7 25 11 0 11 3 -1 10 -12 8 -13 11 -1 19 11 7 11 9 0 14
-12 5 -12 7 -1 15 8 5 14 13 14 17 0 4 -6 12 -14 16 -10 7 -10 9 0 9 10 0 10
5 1 21 -6 12 -7 19 -2 16 15 -9 15 83 1 101 -10 13 -10 14 0 8 7 -4 12 -2 12
8 0 8 -6 17 -12 19 -10 4 -10 6 0 6 6 1 12 6 12 12 0 5 -6 7 -12 3 -10 -6 -10
-4 0 7 16 17 16 37 0 21 -15 -15 -28 -15 -28 0 0 6 3 8 7 5 7 -8 33 11 33 25
0 5 -10 6 -21 3 -15 -5 -19 -4 -15 4 4 6 14 11 22 11 8 0 14 5 14 11 0 5 -5 7
-12 3 -8 -5 -8 -3 -2 7 11 17 15 310 4 324 -4 6 -13 31 -20 58 -7 26 -17 50
-21 53 -5 3 -9 16 -9 29 0 13 -5 27 -11 31 -8 4 -7 9 2 15 9 5 9 9 3 9 -7 0
-14 8 -17 18 -3 9 -18 49 -32 87 -14 39 -27 77 -29 85 -3 8 -5 15 -6 15 -1 0
-3 8 -5 18 -2 10 -7 26 -11 35 -4 9 -8 22 -10 27 -1 6 -12 37 -24 70 -27 77
-28 79 -27 85 0 3 -5 15 -12 28 -7 13 -14 31 -16 40 -2 9 -17 56 -33 104 -17
47 -29 88 -27 90 3 2 -7 17 -21 33 l-25 30 21 17 c12 10 17 18 11 18 -7 0 -10
4 -6 9 3 5 1 12 -4 15 -5 4 -8 -2 -7 -11 3 -17 -10 -33 -27 -33 -5 0 -1 7 7
16 9 8 14 19 11 24 -3 4 2 13 10 20 8 7 12 16 9 21 -3 5 3 6 12 2 16 -6 15 -7
-2 -20 -20 -15 -7 -18 15 -4 12 8 12 13 3 24 -10 12 -9 16 3 21 10 3 13 11 9
18 -6 9 -3 9 9 0 14 -12 16 -11 12 7 -2 12 0 19 4 16 5 -2 15 3 22 12 12 14
12 16 -1 9 -8 -4 -6 0 4 8 11 9 16 16 10 16 -5 0 -4 4 2 8 6 4 22 27 35 52
l24 45 79 2 c74 2 84 -1 155 -38 41 -21 84 -39 94 -39 12 0 16 -4 11 -12 -6
-10 -4 -10 8 0 14 11 18 11 25 -1 4 -8 19 -20 32 -27 13 -6 21 -7 17 -2 -3 6
4 18 16 26 12 9 17 16 11 16 -6 0 -13 11 -15 25 -3 14 -1 22 5 18 5 -3 6 3 2
16 -3 12 -2 21 4 21 5 0 8 -14 6 -32 -4 -29 -3 -30 10 -12 8 11 9 20 4 22 -6
2 -4 11 3 20 10 12 10 14 1 8 -8 -4 -13 -1 -13 9 0 9 5 13 10 10 6 -3 10 -1
10 5 0 7 -6 10 -13 7 -24 -9 -40 8 -22 23 13 11 15 10 12 -1 -2 -8 -2 -11 0
-6 3 4 8 5 11 3 4 -2 8 11 8 30 1 19 -2 34 -7 34 -4 0 -6 -10 -4 -21 3 -12 2
-19 -2 -15 -3 3 -11 1 -18 -4 -8 -7 -12 -5 -12 5 0 7 3 14 6 13 19 -2 24 4 11
12 -12 8 -12 10 -1 10 10 0 11 3 2 13 -8 10 -7 14 4 14 8 0 11 -5 8 -11 -3 -6
-2 -7 3 -3 12 12 13 127 0 127 -6 0 -5 5 2 12 15 15 15 28 1 28 -5 0 -8 -4 -4
-9 9 -15 -15 -25 -28 -12 -9 9 -8 11 4 6 10 -4 16 0 16 10 0 9 -6 14 -14 11
-8 -3 -11 -1 -8 4 4 6 14 9 22 8 9 -2 18 4 20 12 4 13 3 13 -6 0 -8 -11 -11
-11 -11 -2 0 9 -5 10 -19 2 -25 -13 -34 -13 -26 0 3 6 1 10 -4 10 -6 0 -11 -8
-11 -17 0 -12 -3 -14 -8 -6 -4 6 -20 14 -36 17 -43 8 -44 16 -2 12 21 -1 35 2
33 8 -2 6 -46 9 -110 9 -76 -1 -107 2 -107 10 0 9 -2 9 -8 0 -6 -10 -72 -13
-261 -13 -199 -1 -256 -4 -267 -15 -11 -11 -11 -14 2 -19 10 -4 13 -2 8 6 -4
7 -3 8 4 4 16 -10 15 -28 -3 -52 -13 -16 -14 -16 -9 -1 4 10 1 17 -6 17 -6 0
-8 6 -4 13 4 6 3 9 -1 4 -5 -4 -9 -46 -9 -95 -1 -48 -5 -92 -9 -99 -4 -7 0
-16 10 -22 10 -6 13 -11 7 -11 -8 0 -11 -19 -9 -54 1 -30 -1 -60 -6 -67 -5 -8
-1 -21 9 -33 9 -11 12 -16 6 -13 -7 4 -14 0 -18 -8 -3 -8 0 -15 7 -15 8 0 8
-3 -2 -9 -11 -7 -11 -9 0 -14 8 -3 9 -6 2 -6 -6 -1 -9 -9 -7 -18 3 -12 -5 -24
-26 -35 -16 -9 -30 -13 -30 -8 0 4 6 11 13 13 9 4 9 6 -1 6 -7 1 -15 -6 -18
-14 -5 -13 -9 -13 -22 -3 -12 10 -14 10 -8 0 11 -19 -34 -9 -49 11 -7 9 -16
13 -21 9 -4 -4 -2 2 6 12 8 11 10 17 4 13 -7 -4 -14 0 -17 8 -4 10 -1 12 11 9
11 -3 9 -1 -4 8 -12 7 -19 19 -17 26 3 7 -1 10 -11 6 -23 -9 -46 43 -25 58 11
8 11 9 -3 4 -12 -3 -22 2 -29 17 -12 21 -11 21 7 7 18 -14 18 -14 5 3 -7 9
-21 17 -30 17 -14 0 -14 2 -1 10 13 9 13 10 0 11 -8 1 -18 1 -22 0 -4 0 -5 6
-2 14 3 8 -1 22 -10 31 -9 8 -14 20 -11 25 4 5 1 9 -4 9 -6 0 -11 7 -11 16 0
8 -4 13 -8 10 -5 -3 -9 1 -10 9 -1 8 -3 22 -4 30 -1 8 -7 15 -14 15 -7 0 -11
8 -10 17 2 10 -3 24 -11 31 -7 8 -11 18 -8 23 4 5 2 9 -2 9 -15 0 -74 120 -67
133 5 6 -1 5 -11 -3 -10 -8 -16 -10 -12 -3 4 6 -2 27 -13 45 -30 50 -41 79
-34 90 4 7 2 8 -5 4 -6 -4 -14 0 -18 11 -3 10 -13 26 -21 36 -8 9 -12 17 -8
17 4 0 -2 12 -13 26 -12 15 -21 33 -21 41 0 8 -5 11 -12 7 -6 -4 -8 -3 -5 3 8
13 -20 73 -34 73 -5 0 -8 3 -7 8 3 15 -34 92 -43 86 -5 -3 -6 2 -3 10 3 9 1
16 -4 16 -6 0 -12 10 -14 23 -2 12 -9 21 -16 19 -8 -1 -11 2 -7 8 3 5 2 10 -3
10 -6 0 -8 9 -5 20 3 11 1 20 -5 20 -6 0 -16 16 -23 35 -7 19 -17 35 -22 35
-4 0 -5 5 -2 10 3 6 -1 13 -9 16 -9 3 -14 10 -11 14 3 5 -1 14 -8 22 -7 7 -14
18 -15 23 -6 27 -14 45 -23 45 -5 0 -8 3 -7 8 3 15 -15 42 -24 36 -6 -4 -8 -1
-6 7 3 8 -6 34 -20 59 -14 25 -41 76 -59 113 -19 37 -38 65 -43 62 -5 -3 -7 1
-4 9 3 9 -1 23 -10 32 -10 9 -15 21 -13 27 2 6 -5 19 -15 29 -10 10 -18 25
-18 33 0 8 -5 15 -11 15 -5 0 -7 5 -4 10 3 6 2 10 -3 10 -6 0 -13 11 -16 25
-4 14 -11 25 -16 25 -6 0 -10 7 -10 15 0 27 -30 76 -42 69 -6 -4 -8 -3 -4 4 3
6 -2 26 -13 45 -11 19 -17 38 -14 41 4 3 1 6 -5 6 -7 0 -12 6 -12 13 0 8 -9
24 -20 37 -11 13 -20 29 -20 37 0 7 -4 13 -9 13 -5 0 -12 12 -16 28 -3 15 -14
35 -22 45 -9 9 -13 17 -8 17 4 0 2 7 -5 15 -6 8 -8 20 -4 26 4 7 3 9 -3 6 -6
-4 -23 19 -39 51 -15 31 -31 59 -34 62 -3 3 -16 26 -28 52 -15 32 -29 49 -44
52 -13 3 -95 8 -183 11 -204 8 -340 13 -485 20 -63 3 -182 8 -265 10 -82 3
-193 7 -245 10 -52 3 -158 7 -235 10 -135 5 -214 8 -485 20 -69 3 -172 8 -230
10 -58 3 -163 7 -235 10 -71 3 -186 7 -255 10 -69 3 -177 7 -240 10 -63 2
-189 8 -280 11 -202 9 -470 11 -470 4z m-5585 -2109 c3 -5 2 -12 -3 -15 -5 -3
-9 1 -9 9 0 17 3 19 12 6z m25 -25 c0 -2 -7 -7 -16 -10 -8 -3 -12 -2 -9 4 6
10 25 14 25 6z m11531 -69 c-1 -12 -15 -9 -19 4 -3 6 1 10 8 8 6 -3 11 -8 11
-12z m-830 -30 c-10 -9 -11 -8 -5 6 3 10 9 15 12 12 3 -3 0 -11 -7 -18z m839
-27 c0 -5 -7 -7 -15 -4 -8 4 -15 8 -15 10 0 2 7 4 15 4 8 0 15 -4 15 -10z
m-15 -20 c3 -5 1 -10 -4 -10 -6 0 -11 5 -11 10 0 6 2 10 4 10 3 0 8 -4 11 -10z
m-10320 -28 c-3 -3 -11 0 -18 7 -9 10 -8 11 6 5 10 -3 15 -9 12 -12z m-38
-117 c0 -8 -4 -12 -9 -9 -4 3 -8 9 -8 15 0 5 4 9 8 9 5 0 9 -7 9 -15z m-66
-68 c-10 -9 -11 -8 -5 6 3 10 9 15 12 12 3 -3 0 -11 -7 -18z m10365 -25 c-2
-4 0 -14 5 -22 8 -12 12 -12 16 -2 2 6 10 12 16 12 6 0 3 -8 -6 -17 -17 -17
-19 -17 -32 1 -13 17 -12 36 1 36 3 0 3 -4 0 -8z m-10523 -157 c-3 -9 -8 -14
-10 -11 -3 3 -2 9 2 15 9 16 15 13 8 -4z m-303 -100 c-8 -10 -8 -14 2 -17 7
-3 8 -7 2 -11 -5 -3 -15 3 -22 14 -10 15 -10 19 0 17 7 -2 12 3 10 10 -1 8 2
11 8 7 8 -5 8 -11 0 -20z m10595 -1236 c1 -19 -3 -25 -14 -21 -8 3 -12 1 -8
-4 3 -6 1 -16 -4 -24 -9 -13 -10 -13 -6 0 2 8 -3 24 -12 35 -15 18 -15 19 0 7
14 -10 18 -10 22 3 4 8 3 14 -1 14 -15 -3 -23 1 -18 9 2 4 13 8 23 8 13 0 18
-8 18 -27z m-20 -279 c-1 -44 3 -80 7 -80 5 0 6 -6 1 -12 -4 -7 -8 -23 -8 -36
-1 -30 -19 -28 -21 3 0 14 2 25 5 25 3 0 6 37 5 83 -1 73 2 97 10 97 1 0 2
-36 1 -80z m9 -176 c3 -7 -2 -10 -15 -7 -22 6 -26 20 -4 20 8 0 16 -6 19 -13z
m-54 -168 c0 -3 -4 -8 -10 -11 -5 -3 -10 -1 -10 4 0 6 5 11 10 11 6 0 10 -2
10 -4z m-11359 -103 c7 -10 9 -15 5 -11 -5 4 -16 2 -25 -5 -14 -10 -14 -10 -4
4 7 9 10 19 6 22 -3 4 -4 7 -1 7 3 0 12 -8 19 -17z m-6 -63 c4 -6 -1 -7 -11
-3 -13 5 -15 3 -9 -7 5 -9 4 -11 -4 -6 -6 4 -9 12 -6 17 8 12 22 12 30 -1z
m-25 -40 c0 -5 -2 -10 -4 -10 -3 0 -8 5 -11 10 -3 6 -1 10 4 10 6 0 11 -4 11
-10z m-9 -77 c13 -16 12 -17 -3 -4 -10 7 -18 15 -18 17 0 8 8 3 21 -13z m-21
-83 c0 -5 -2 -10 -4 -10 -3 0 -8 5 -11 10 -3 6 -1 10 4 10 6 0 11 -4 11 -10z
m12125 -679 c3 -5 2 -12 -3 -15 -5 -3 -9 1 -9 9 0 17 3 19 12 6z m49 -239 c3
-5 -1 -9 -9 -9 -8 0 -12 4 -9 9 3 4 7 8 9 8 2 0 6 -4 9 -8z m-7 -197 c0 -8 -4
-12 -9 -9 -5 3 -6 10 -3 15 9 13 12 11 12 -6z m6 -45 c3 -11 1 -23 -4 -26 -5
-3 -9 6 -9 20 0 31 6 34 13 6z m-6 -72 c-9 -6 -8 -8 3 -8 12 0 12 -2 1 -9 -8
-5 -9 -11 -3 -15 6 -3 9 -14 7 -24 -1 -9 1 -22 6 -27 5 -7 -2 -11 -19 -13 -15
-1 -22 2 -16 6 12 8 12 71 -1 91 -5 10 -4 12 3 7 8 -4 12 0 12 11 0 15 2 16
10 3 6 -9 5 -17 -3 -22z m23 -318 c0 -5 -5 -10 -11 -10 -5 0 -7 5 -4 10 3 6 8
10 11 10 2 0 4 -4 4 -10z m-58 -169 c8 11 9 11 6 1 -4 -16 -22 -18 -24 -2 -2
7 -1 6 3 -1 4 -8 8 -7 15 2z m-12212 -15 c0 -3 -4 -8 -10 -11 -5 -3 -10 -1
-10 4 0 6 5 11 10 11 6 0 10 -2 10 -4z m9815 -66 c3 -5 1 -10 -4 -10 -6 0 -11
5 -11 10 0 6 2 10 4 10 3 0 8 -4 11 -10z m-7675 -360 c0 -5 -8 -10 -17 -10
-15 0 -16 2 -3 10 19 12 20 12 20 0z m8534 -838 c3 -5 -1 -9 -9 -9 -8 0 -12 4
-9 9 3 4 7 8 9 8 2 0 6 -4 9 -8z m-9149 -31 c3 -5 2 -12 -3 -15 -5 -3 -9 1 -9
9 0 17 3 19 12 6z m10568 -136 c-7 -21 -12 -19 -10 4 0 11 5 18 9 15 4 -3 5
-11 1 -19z m-270 -110 c4 -8 3 -16 -1 -19 -4 -3 -9 4 -9 15 -2 23 3 25 10 4z
m39 8 c-6 -3 -10 -9 -6 -14 3 -5 1 -9 -4 -9 -21 0 -19 26 2 27 11 0 15 -1 8
-4z m-563 -37 c-3 -3 -11 5 -18 17 -13 21 -12 21 5 5 10 -10 16 -20 13 -22z
m357 22 c3 -4 -1 -5 -10 -4 -8 1 -18 5 -22 8 -3 4 1 5 10 4 8 -1 18 -5 22 -8z
m-564 -20 c-7 -7 -12 -8 -12 -2 0 14 12 26 19 19 2 -3 -1 -11 -7 -17z m123 13
c3 -5 2 -12 -3 -15 -5 -3 -9 1 -9 9 0 17 3 19 12 6z m523 -16 c-3 -3 -9 2 -12
12 -6 14 -5 15 5 6 7 -7 10 -15 7 -18z m-213 5 c3 -6 -1 -7 -9 -4 -18 7 -21
14 -7 14 6 0 13 -4 16 -10z"/>
<path d="M12265 8800 c-3 -6 1 -7 9 -4 18 7 21 14 7 14 -6 0 -13 -4 -16 -10z"/>
<path d="M2146 8722 c-3 -5 1 -9 9 -9 8 0 12 4 9 9 -3 4 -7 8 -9 8 -2 0 -6 -4
-9 -8z"/>
<path d="M2050 8519 c0 -5 5 -7 10 -4 6 3 10 8 10 11 0 2 -4 4 -10 4 -5 0 -10
-5 -10 -11z"/>
<path d="M2015 8460 c-3 -5 -1 -10 4 -10 6 0 11 5 11 10 0 6 -2 10 -4 10 -3 0
-8 -4 -11 -10z"/>
<path d="M1710 8425 c0 -5 5 -17 10 -25 5 -8 10 -10 10 -5 0 6 -5 17 -10 25
-5 8 -10 11 -10 5z"/>
<path d="M2015 8420 c4 -6 11 -8 16 -5 14 9 11 15 -7 15 -8 0 -12 -5 -9 -10z"/>
<path d="M11386 8362 c-2 -4 -1 -14 3 -21 6 -9 11 -10 15 -2 4 6 2 11 -4 11
-6 0 -8 5 -5 10 3 6 4 10 1 10 -3 0 -7 -4 -10 -8z"/>
<path d="M11875 8200 c3 -5 8 -10 11 -10 2 0 4 5 4 10 0 6 -5 10 -11 10 -5 0
-7 -4 -4 -10z"/>
<path d="M12833 5285 c0 -8 4 -12 9 -9 5 3 6 10 3 15 -9 13 -12 11 -12 -6z"/>
<path d="M12765 5240 c3 -5 8 -10 11 -10 2 0 4 5 4 10 0 6 -5 10 -11 10 -5 0
-7 -4 -4 -10z"/>
<path d="M12786 5222 c-3 -5 1 -9 9 -9 8 0 15 4 15 9 0 4 -4 8 -9 8 -6 0 -12
-4 -15 -8z"/>
<path d="M12835 5220 c3 -5 10 -10 16 -10 5 0 9 5 9 10 0 6 -7 10 -16 10 -8 0
-12 -4 -9 -10z"/>
<path d="M12830 5191 c0 -10 7 -22 16 -25 14 -5 15 -4 5 8 -9 11 -9 15 1 18 8
3 6 7 -5 11 -12 5 -17 1 -17 -12z"/>
<path d="M12879 4973 c-13 -16 -12 -17 4 -4 16 13 21 21 13 21 -2 0 -10 -8
-17 -17z"/>
<path d="M12886 4943 c-6 -14 -5 -15 5 -6 7 7 10 15 7 18 -3 3 -9 -2 -12 -12z"/>
<path d="M2760 4405 c-7 -9 -8 -15 -2 -15 5 0 12 7 16 15 3 8 4 15 2 15 -2 0
-9 -7 -16 -15z"/>
<path d="M510 4325 c-11 -13 -10 -14 4 -9 9 3 16 10 16 15 0 13 -6 11 -20 -6z"/>
<path d="M535 4309 c-4 -6 -5 -12 -2 -15 2 -3 7 2 10 11 7 17 1 20 -8 4z"/>
<path d="M12860 4271 c0 -5 -3 -16 -6 -25 -3 -9 -2 -16 3 -16 5 0 10 11 11 25
1 14 0 25 -3 25 -3 0 -5 -4 -5 -9z"/>
<path d="M540 4259 c0 -5 5 -9 10 -9 6 0 12 0 15 0 14 0 8 13 -7 16 -10 1 -18
-2 -18 -7z"/>
<path d="M555 4210 c17 -19 20 -34 5 -25 -5 3 -10 1 -10 -4 0 -6 4 -11 9 -11
17 0 23 20 11 34 -8 11 -8 15 2 19 7 3 3 4 -9 4 -20 -1 -21 -3 -8 -17z"/>
<path d="M12853 4205 c0 -8 4 -15 9 -15 4 0 8 4 8 9 0 6 -4 12 -8 15 -5 3 -9
-1 -9 -9z"/>
<path d="M12850 4160 c-9 -6 -10 -10 -3 -10 6 0 15 5 18 10 8 12 4 12 -15 0z"/>
<path d="M12850 4120 c0 -5 5 -10 11 -10 5 0 7 5 4 10 -3 6 -8 10 -11 10 -2 0
-4 -4 -4 -10z"/>
<path d="M12846 4038 c3 -5 10 -6 15 -3 13 9 11 12 -6 12 -8 0 -12 -4 -9 -9z"/>
<path d="M12796 3983 c-6 -14 -5 -15 5 -6 7 7 10 15 7 18 -3 3 -9 -2 -12 -12z"/>
<path d="M12830 3899 c0 -5 5 -7 10 -4 6 3 10 8 10 11 0 2 -4 4 -10 4 -5 0
-10 -5 -10 -11z"/>
<path d="M625 3810 c6 -30 16 -40 12 -12 -2 12 -6 24 -10 28 -3 4 -4 -4 -2
-16z"/>
<path d="M626 3737 c3 -10 9 -15 12 -12 3 3 0 11 -7 18 -10 9 -11 8 -5 -6z"/>
<path d="M636 3702 c-3 -5 1 -9 9 -9 8 0 12 4 9 9 -3 4 -7 8 -9 8 -2 0 -6 -4
-9 -8z"/>
<path d="M2759 3653 c-13 -16 -12 -17 4 -4 16 13 21 21 13 21 -2 0 -10 -8 -17
-17z"/>
<path d="M10660 3660 c-9 -6 -10 -10 -3 -10 6 0 15 5 18 10 8 12 4 12 -15 0z"/>
<path d="M10838 3658 c-9 -5 -6 -7 9 -5 12 2 25 6 28 8 8 9 -23 6 -37 -3z"/>
<path d="M11076 3662 c-3 -5 1 -9 9 -9 8 0 12 4 9 9 -3 4 -7 8 -9 8 -2 0 -6
-4 -9 -8z"/>
<path d="M2255 3609 c-3 -4 2 -6 10 -5 21 3 28 13 10 13 -9 0 -18 -4 -20 -8z"/>
<path d="M12757 3353 c-10 -9 -9 -23 1 -23 5 0 9 7 9 15 0 17 -1 18 -10 8z"/>
<path d="M655 3280 c3 -5 8 -10 11 -10 2 0 4 5 4 10 0 6 -5 10 -11 10 -5 0 -7
-4 -4 -10z"/>
<path d="M12753 3271 c0 -11 5 -18 9 -15 4 3 5 11 1 19 -7 21 -12 19 -10 -4z"/>
<path d="M2179 3175 c-1 -3 -3 -9 -4 -15 -1 -5 -3 -11 -5 -12 -1 -2 -3 -10 -5
-19 -4 -22 20 -20 34 4 8 11 8 16 2 12 -6 -3 -11 -2 -11 4 0 5 5 11 12 13 7 3
6 7 -5 11 -9 3 -18 4 -18 2z"/>
<path d="M2176 3082 c-2 -4 -1 -14 4 -22 7 -11 9 -9 7 8 -1 24 -3 26 -11 14z"/>
<path d="M2135 3051 c-3 -5 -2 -12 3 -15 5 -3 9 1 9 9 0 17 -3 19 -12 6z"/>
<path d="M2181 3033 c-1 -6 -4 -20 -7 -30 -5 -17 -5 -17 6 0 6 10 9 23 6 30
-3 9 -5 9 -5 0z"/>
<path d="M2120 2926 c0 -2 7 -7 16 -10 8 -3 12 -2 9 4 -6 10 -25 14 -25 6z"/>
<path d="M2147 2879 c7 -7 15 -10 18 -7 3 3 -2 9 -12 12 -14 6 -15 5 -6 -5z"/>
<path d="M2150 2842 c0 -5 7 -9 15 -9 8 0 12 4 9 9 -3 4 -9 8 -15 8 -5 0 -9
-4 -9 -8z"/>
<path d="M12500 2580 c18 -12 30 -13 30 -2 0 4 -10 9 -22 9 -18 2 -20 0 -8 -7z"/>
<path d="M11490 2564 c0 -8 5 -12 10 -9 6 4 8 11 5 16 -9 14 -15 11 -15 -7z"/>
<path d="M11433 2555 c0 -8 4 -12 9 -9 5 3 6 10 3 15 -9 13 -12 11 -12 -6z"/>
<path d="M1390 2539 c0 -5 5 -7 10 -4 6 3 10 8 10 11 0 2 -4 4 -10 4 -5 0 -10
-5 -10 -11z"/>
<path d="M1675 2540 c3 -5 8 -10 11 -10 2 0 4 5 4 10 0 6 -5 10 -11 10 -5 0
-7 -4 -4 -10z"/>
</g>
</svg>
